<svg viewBox="128 0 320 320" version="1.1" baseProfile="full" xmlns="http://www.w3.org/2000/svg" xmlns:xlink="http://www.w3.org/1999/xlink" xmlns:ev="http://www.w3.org/2001/xml-events"><polygon fill="rgb(247,132,25)" stroke="rgb(247,132,25)" points="268.7548488378525,55.37092378735542 335.4113462269306,55.45776969194412 320.83404187858105,89.94247208535671"></polygon><polygon fill="rgb(247,132,25)" stroke="rgb(247,132,25)" points="320.83404187858105,89.94247208535671 283.6341807991266,89.90624588727951 268.7548488378525,55.37092378735542"></polygon><polygon fill="rgb(225,119,25)" stroke="rgb(225,119,25)" points="414.2410662174225,19.476080626249313 320.83404187858105,89.94247208535671 335.4113462269306,55.45776969194412"></polygon><polygon fill="rgb(228,119,25)" stroke="rgb(228,119,25)" points="283.6341807991266,89.90624588727951 190.14400267601013,19.106945127248764 268.7548488378525,55.37092378735542"></polygon><polygon fill="rgb(119,57,0)" stroke="rgb(119,57,0)" points="376.6640565097332,120.27346605807543 421.34044992923737,99.09647725522518 419.09635078907013,108.98471772670746"></polygon><polygon fill="rgb(119,57,0)" stroke="rgb(119,57,0)" points="417.68386149406433,120.86359277367592 376.6640565097332,120.27346605807543 419.09635078907013,108.98471772670746"></polygon><polygon fill="rgb(119,57,0)" stroke="rgb(119,57,0)" points="411.7953513264656,138.05965942889452 358.38473695516586,123.35186579078436 376.6640565097332,120.27346605807543"></polygon><polygon fill="rgb(119,57,0)" stroke="rgb(119,57,0)" points="417.68386149406433,120.86359277367592 411.7953513264656,138.05965942889452 376.6640565097332,120.27346605807543"></polygon><polygon fill="rgb(119,57,0)" stroke="rgb(119,57,0)" points="227.46513831615448,120.17125931382179 185.01002377271652,108.79907569289207 182.7541702389717,98.88474817574024"></polygon><polygon fill="rgb(119,57,0)" stroke="rgb(119,57,0)" points="186.435167491436,120.70641927421093 185.01002377271652,108.79907569289207 227.46513831615448,120.17125931382179"></polygon><polygon fill="rgb(119,57,0)" stroke="rgb(119,57,0)" points="192.34497237205505,137.9465268328786 227.46513831615448,120.17125931382179 245.89017274975777,123.27811807394028"></polygon><polygon fill="rgb(119,57,0)" stroke="rgb(119,57,0)" points="186.435167491436,120.70641927421093 227.46513831615448,120.17125931382179 192.34497237205505,137.9465268328786"></polygon><polygon fill="rgb(119,57,0)" stroke="rgb(119,57,0)" points="421.34044992923737,99.09647725522518 376.6640565097332,120.27346605807543 374.6602654159069,66.19552662968636"></polygon><polygon fill="rgb(119,57,0)" stroke="rgb(119,57,0)" points="374.6602654159069,66.19552662968636 376.6640565097332,120.27346605807543 358.38473695516586,123.35186579078436"></polygon><polygon fill="rgb(119,57,0)" stroke="rgb(119,57,0)" points="229.6865071952343,66.02142602205276 227.46513831615448,120.17125931382179 182.7541702389717,98.88474817574024"></polygon><polygon fill="rgb(119,57,0)" stroke="rgb(119,57,0)" points="245.89017274975777,123.27811807394028 227.46513831615448,120.17125931382179 229.6865071952343,66.02142602205276"></polygon><polygon fill="rgb(225,119,25)" stroke="rgb(225,119,25)" points="341.1503208875656,225.46205992996693 343.53663828969,225.74682608246803 357.4452224969864,232.77529318630695"></polygon><polygon fill="rgb(225,119,25)" stroke="rgb(225,119,25)" points="247.03971374034882,232.8181457221508 260.74097150564194,225.77340748906136 262.95441111922264,225.48694910109043"></polygon><polygon fill="rgb(119,57,0)" stroke="rgb(119,57,0)" points="426.88399654626846,102.6327835470438 419.09635078907013,108.98471772670746 421.34044992923737,99.09647725522518"></polygon><polygon fill="rgb(119,57,0)" stroke="rgb(119,57,0)" points="358.38473695516586,123.35186579078436 320.83404187858105,89.94247208535671 374.6602654159069,66.19552662968636"></polygon><polygon fill="rgb(228,119,25)" stroke="rgb(228,119,25)" points="431.87874978780746,195.45587772130966 417.4675752520561,255.50109812617302 357.4452224969864,232.77529318630695"></polygon><polygon fill="rgb(119,57,0)" stroke="rgb(119,57,0)" points="177.207293510437,102.41962842643261 182.7541702389717,98.88474817574024 185.01002377271652,108.79907569289207"></polygon><polygon fill="rgb(119,57,0)" stroke="rgb(119,57,0)" points="229.6865071952343,66.02142602205276 283.6341807991266,89.90624588727951 245.89017274975777,123.27811807394028"></polygon><polygon fill="rgb(119,57,0)" stroke="rgb(119,57,0)" points="417.68386149406433,120.86359277367592 419.09635078907013,108.98471772670746 425.3872014284134,113.28457397222519"></polygon><polygon fill="rgb(228,119,25)" stroke="rgb(228,119,25)" points="247.03971374034882,232.8181457221508 186.49478548765182,255.640888184309 172.07402563095093,195.46424145251513"></polygon><polygon fill="rgb(119,57,0)" stroke="rgb(119,57,0)" points="374.6602654159069,66.19552662968636 428.0334700345993,57.67425590753555 421.34044992923737,99.09647725522518"></polygon><polygon fill="rgb(119,57,0)" stroke="rgb(119,57,0)" points="186.435167491436,120.70641927421093 178.71610403060913,113.09906028211117 185.01002377271652,108.79907569289207"></polygon><polygon fill="rgb(119,57,0)" stroke="rgb(119,57,0)" points="182.7541702389717,98.88474817574024 176.14410591125488,57.351114988327026 229.6865071952343,66.02142602205276"></polygon><polygon fill="rgb(119,57,0)" stroke="rgb(119,57,0)" points="411.7953513264656,138.05965942889452 417.68386149406433,120.86359277367592 422.8322768807411,124.13672317564487"></polygon><polygon fill="rgb(119,57,0)" stroke="rgb(119,57,0)" points="192.34497237205505,137.9465268328786 181.28440302610397,123.98008681833744 186.435167491436,120.70641927421093"></polygon><polygon fill="rgb(247,132,25)" stroke="rgb(247,132,25)" points="374.9934610724449,141.38260738924146 411.7953513264656,138.05965942889452 431.87874978780746,195.45587772130966"></polygon><polygon fill="rgb(247,132,25)" stroke="rgb(247,132,25)" points="229.57992112636566,141.31227741762996 172.07402563095093,195.46424145251513 192.34497237205505,137.9465268328786"></polygon><polygon fill="rgb(228,119,25)" stroke="rgb(228,119,25)" points="357.4452224969864,232.77529318630695 384.00476080179214,187.81541318446398 431.87874978780746,195.45587772130966"></polygon><polygon fill="rgb(247,132,25)" stroke="rgb(247,132,25)" points="374.9934610724449,141.38260738924146 431.87874978780746,195.45587772130966 384.00476080179214,187.81541318446398"></polygon><polygon fill="rgb(247,132,25)" stroke="rgb(247,132,25)" points="411.7953513264656,138.05965942889452 374.9934610724449,141.38260738924146 358.38473695516586,123.35186579078436"></polygon><polygon fill="rgb(228,119,25)" stroke="rgb(228,119,25)" points="172.07402563095093,195.46424145251513 220.56464326381683,187.8087583258748 247.03971374034882,232.8181457221508"></polygon><polygon fill="rgb(247,132,25)" stroke="rgb(247,132,25)" points="220.56464326381683,187.8087583258748 172.07402563095093,195.46424145251513 229.57992112636566,141.31227741762996"></polygon><polygon fill="rgb(247,132,25)" stroke="rgb(247,132,25)" points="192.34497237205505,137.9465268328786 245.89017274975777,123.27811807394028 229.57992112636566,141.31227741762996"></polygon><polygon fill="rgb(228,119,25)" stroke="rgb(228,119,25)" points="358.38473695516586,123.35186579078436 374.9934610724449,141.38260738924146 317.9376661479473,141.47141766548157"></polygon><polygon fill="rgb(228,119,25)" stroke="rgb(228,119,25)" points="317.9376661479473,141.47141766548157 320.83404187858105,89.94247208535671 358.38473695516586,123.35186579078436"></polygon><polygon fill="rgb(228,119,25)" stroke="rgb(228,119,25)" points="245.89017274975777,123.27811807394028 283.6341807991266,89.90624588727951 286.86420445144176,141.45642284303904"></polygon><polygon fill="rgb(228,119,25)" stroke="rgb(228,119,25)" points="286.86420445144176,141.45642284303904 229.57992112636566,141.31227741762996 245.89017274975777,123.27811807394028"></polygon><polygon fill="rgb(119,57,0)" stroke="rgb(119,57,0)" points="414.2410662174225,19.476080626249313 428.0334700345993,57.67425590753555 374.6602654159069,66.19552662968636"></polygon><polygon fill="rgb(119,57,0)" stroke="rgb(119,57,0)" points="374.6602654159069,66.19552662968636 320.83404187858105,89.94247208535671 414.2410662174225,19.476080626249313"></polygon><polygon fill="rgb(119,57,0)" stroke="rgb(119,57,0)" points="190.14400267601013,19.106945127248764 283.6341807991266,89.90624588727951 229.6865071952343,66.02142602205276"></polygon><polygon fill="rgb(119,57,0)" stroke="rgb(119,57,0)" points="229.6865071952343,66.02142602205276 176.14410591125488,57.351114988327026 190.14400267601013,19.106945127248764"></polygon><polygon fill="rgb(247,132,25)" stroke="rgb(247,132,25)" points="283.6341807991266,89.90624588727951 320.83404187858105,89.94247208535671 317.9376661479473,141.47141766548157"></polygon><polygon fill="rgb(247,132,25)" stroke="rgb(247,132,25)" points="317.9376661479473,141.47141766548157 286.86420445144176,141.45642284303904 283.6341807991266,89.90624588727951"></polygon><polygon fill="rgb(205,98,0)" stroke="rgb(205,98,0)" points="357.4452224969864,232.77529318630695 351.895636677742,186.0825093984604 384.00476080179214,187.81541318446398"></polygon><polygon fill="rgb(205,98,0)" stroke="rgb(205,98,0)" points="247.03971374034882,232.8181457221508 220.56464326381683,187.8087583258748 252.8746721148491,186.07684326171875"></polygon><polygon fill="rgb(205,98,0)" stroke="rgb(205,98,0)" points="317.9376661479473,141.47141766548157 374.9934610724449,141.38260738924146 352.3379294872284,163.19369548000395"></polygon><polygon fill="rgb(205,98,0)" stroke="rgb(205,98,0)" points="252.38453820347786,163.16615565493703 229.57992112636566,141.31227741762996 286.86420445144176,141.45642284303904"></polygon><polygon fill="rgb(228,116,36)" stroke="rgb(228,116,36)" points="374.9934610724449,141.38260738924146 351.895636677742,186.0825093984604 352.3379294872284,163.19369548000395"></polygon><polygon fill="rgb(247,132,25)" stroke="rgb(247,132,25)" points="384.00476080179214,187.81541318446398 351.895636677742,186.0825093984604 374.9934610724449,141.38260738924146"></polygon><polygon fill="rgb(228,116,36)" stroke="rgb(228,116,36)" points="229.57992112636566,141.31227741762996 252.38453820347786,163.16615565493703 252.8746721148491,186.07684326171875"></polygon><polygon fill="rgb(247,132,25)" stroke="rgb(247,132,25)" points="229.57992112636566,141.31227741762996 252.8746721148491,186.07684326171875 220.56464326381683,187.8087583258748"></polygon><polygon fill="rgb(192,172,157)" stroke="rgb(192,172,157)" points="324.8292284011841,233.69044557213783 357.4452224969864,232.77529318630695 346.12591698765755,238.99307492375374"></polygon><polygon fill="rgb(192,172,157)" stroke="rgb(192,172,157)" points="258.57190787792206,239.03224352002144 247.03971374034882,232.8181457221508 280.54713593423367,233.70800964534283"></polygon><polygon fill="rgb(205,98,0)" stroke="rgb(205,98,0)" points="352.3379294872284,163.19369548000395 331.78613509237766,153.59794911555946 317.9376661479473,141.47141766548157"></polygon><polygon fill="rgb(205,98,0)" stroke="rgb(205,98,0)" points="286.86420445144176,141.45642284303904 272.9826683998108,153.57636954821646 252.38453820347786,163.16615565493703"></polygon><polygon fill="rgb(214,194,178)" stroke="rgb(214,194,178)" points="325.1045071184635,220.58796544373035 357.4452224969864,232.77529318630695 324.8292284011841,233.69044557213783"></polygon><polygon fill="rgb(214,194,178)" stroke="rgb(214,194,178)" points="357.4452224969864,232.77529318630695 325.1045071184635,220.58796544373035 322.1947074383497,196.5813949406147"></polygon><polygon fill="rgb(228,119,25)" stroke="rgb(228,119,25)" points="322.1947074383497,196.5813949406147 351.895636677742,186.0825093984604 357.4452224969864,232.77529318630695"></polygon><polygon fill="rgb(214,194,178)" stroke="rgb(214,194,178)" points="280.4390558153391,220.60010580718517 280.54713593423367,233.70800964534283 247.03971374034882,232.8181457221508"></polygon><polygon fill="rgb(214,194,178)" stroke="rgb(214,194,178)" points="247.03971374034882,232.8181457221508 283.3697631955147,196.583058655262 280.4390558153391,220.60010580718517"></polygon><polygon fill="rgb(228,119,25)" stroke="rgb(228,119,25)" points="283.3697631955147,196.583058655262 247.03971374034882,232.8181457221508 252.8746721148491,186.07684326171875"></polygon><polygon fill="rgb(36,51,67)" stroke="rgb(36,51,67)" points="323.4410624206066,170.0180931277573 331.78613509237766,153.59794911555946 352.3379294872284,163.19369548000395"></polygon><polygon fill="rgb(247,132,25)" stroke="rgb(247,132,25)" points="351.895636677742,186.0825093984604 323.4410624206066,170.0180931277573 352.3379294872284,163.19369548000395"></polygon><polygon fill="rgb(36,51,67)" stroke="rgb(36,51,67)" points="281.42037442326546,170.00925286114216 252.38453820347786,163.16615565493703 272.9826683998108,153.57636954821646"></polygon><polygon fill="rgb(247,132,25)" stroke="rgb(247,132,25)" points="252.8746721148491,186.07684326171875 252.38453820347786,163.16615565493703 281.42037442326546,170.00925286114216"></polygon><polygon fill="rgb(205,98,0)" stroke="rgb(205,98,0)" points="331.78613509237766,153.59794911555946 323.4410624206066,170.0180931277573 317.9376661479473,141.47141766548157"></polygon><polygon fill="rgb(205,98,0)" stroke="rgb(205,98,0)" points="272.9826683998108,153.57636954821646 286.86420445144176,141.45642284303904 281.42037442326546,170.00925286114216"></polygon><polygon fill="rgb(225,119,25)" stroke="rgb(225,119,25)" points="323.4410624206066,170.0180931277573 316.7849142998457,157.70977129181847 317.9376661479473,141.47141766548157"></polygon><polygon fill="rgb(247,132,25)" stroke="rgb(247,132,25)" points="288.1497726216912,157.70038704993203 286.86420445144176,141.45642284303904 317.9376661479473,141.47141766548157"></polygon><polygon fill="rgb(247,132,25)" stroke="rgb(247,132,25)" points="317.9376661479473,141.47141766548157 316.7849142998457,157.70977129181847 288.1497726216912,157.70038704993203"></polygon><polygon fill="rgb(228,116,36)" stroke="rgb(228,116,36)" points="281.42037442326546,170.00925286114216 286.86420445144176,141.45642284303904 288.1497726216912,157.70038704993203"></polygon><polygon fill="rgb(192,172,157)" stroke="rgb(192,172,157)" points="346.12591698765755,238.99307492375374 322.936861038208,243.3517506122589 324.8292284011841,233.69044557213783"></polygon><polygon fill="rgb(192,172,157)" stroke="rgb(192,172,157)" points="280.54713593423367,233.70800964534283 282.4818767160177,243.3715250492096 258.57190787792206,239.03224352002144"></polygon><polygon fill="rgb(247,132,25)" stroke="rgb(247,132,25)" points="323.4410624206066,170.0180931277573 351.895636677742,186.0825093984604 322.1947074383497,196.5813949406147"></polygon><polygon fill="rgb(247,132,25)" stroke="rgb(247,132,25)" points="283.3697631955147,196.583058655262 252.8746721148491,186.07684326171875 281.42037442326546,170.00925286114216"></polygon><polygon fill="rgb(228,116,36)" stroke="rgb(228,116,36)" points="316.7849142998457,157.70977129181847 323.4410624206066,170.0180931277573 317.18047304451466,193.09132090210915"></polygon><polygon fill="rgb(247,132,25)" stroke="rgb(247,132,25)" points="322.1947074383497,196.5813949406147 317.18047304451466,193.09132090210915 323.4410624206066,170.0180931277573"></polygon><polygon fill="rgb(228,116,36)" stroke="rgb(228,116,36)" points="288.1497726216912,157.70038704993203 288.38603503257036,193.09159898012877 281.42037442326546,170.00925286114216"></polygon><polygon fill="rgb(247,132,25)" stroke="rgb(247,132,25)" points="281.42037442326546,170.00925286114216 288.38603503257036,193.09159898012877 283.3697631955147,196.583058655262"></polygon><polygon fill="rgb(247,132,25)" stroke="rgb(247,132,25)" points="288.1497726216912,157.70038704993203 316.7849142998457,157.70977129181847 317.18047304451466,193.09132090210915"></polygon><polygon fill="rgb(247,132,25)" stroke="rgb(247,132,25)" points="317.18047304451466,193.09132090210915 288.38603503257036,193.09159898012877 288.1497726216912,157.70038704993203"></polygon><polygon fill="rgb(192,172,157)" stroke="rgb(192,172,157)" points="325.1045071184635,220.58796544373035 324.8292284011841,233.69044557213783 322.936861038208,243.3517506122589"></polygon><polygon fill="rgb(192,172,157)" stroke="rgb(192,172,157)" points="282.4818767160177,243.3715250492096 280.54713593423367,233.70800964534283 280.4390558153391,220.60010580718517"></polygon><polygon fill="rgb(192,172,157)" stroke="rgb(192,172,157)" points="322.54418464004993,216.72552354633808 322.936861038208,243.3517506122589 282.4818767160177,243.3715250492096"></polygon><polygon fill="rgb(192,172,157)" stroke="rgb(192,172,157)" points="322.936861038208,243.3517506122589 322.54418464004993,216.72552354633808 325.1045071184635,220.58796544373035"></polygon><polygon fill="rgb(192,172,157)" stroke="rgb(192,172,157)" points="280.4390558153391,220.60010580718517 283.0806465148926,216.73479281365871 282.4818767160177,243.3715250492096"></polygon><polygon fill="rgb(192,172,157)" stroke="rgb(192,172,157)" points="282.4818767160177,243.3715250492096 283.0806465148926,216.73479281365871 322.54418464004993,216.72552354633808"></polygon><polygon fill="rgb(0,0,0)" stroke="rgb(0,0,0)" points="322.1947074383497,196.5813949406147 325.1045071184635,220.58796544373035 322.54418464004993,216.72552354633808"></polygon><polygon fill="rgb(0,0,0)" stroke="rgb(0,0,0)" points="283.0806465148926,216.73479281365871 280.4390558153391,220.60010580718517 283.3697631955147,196.583058655262"></polygon><polygon fill="rgb(0,0,0)" stroke="rgb(0,0,0)" points="317.53916880488396,195.00075669586658 317.18047304451466,193.09132090210915 322.1947074383497,196.5813949406147"></polygon><polygon fill="rgb(0,0,0)" stroke="rgb(0,0,0)" points="288.18923331797123,195.00157429277897 288.38603503257036,193.09159898012877 317.18047304451466,193.09132090210915"></polygon><polygon fill="rgb(0,0,0)" stroke="rgb(0,0,0)" points="317.18047304451466,193.09132090210915 317.53916880488396,195.00075669586658 288.18923331797123,195.00157429277897"></polygon><polygon fill="rgb(0,0,0)" stroke="rgb(0,0,0)" points="283.3697631955147,196.583058655262 288.38603503257036,193.09159898012877 288.18923331797123,195.00157429277897"></polygon><polygon fill="rgb(0,0,0)" stroke="rgb(0,0,0)" points="322.54418464004993,216.72552354633808 320.75152936577797,198.62139192968607 322.1947074383497,196.5813949406147"></polygon><polygon fill="rgb(0,0,0)" stroke="rgb(0,0,0)" points="322.1947074383497,196.5813949406147 320.75152936577797,198.62139192968607 317.53916880488396,195.00075669586658"></polygon><polygon fill="rgb(0,0,0)" stroke="rgb(0,0,0)" points="283.3697631955147,196.583058655262 284.97624611109495,198.62362368404865 283.0806465148926,216.73479281365871"></polygon><polygon fill="rgb(0,0,0)" stroke="rgb(0,0,0)" points="288.18923331797123,195.00157429277897 284.97624611109495,198.62362368404865 283.3697631955147,196.583058655262"></polygon><polygon fill="rgb(0,0,0)" stroke="rgb(0,0,0)" points="284.97624611109495,198.62362368404865 320.75152936577797,198.62139192968607 322.54418464004993,216.72552354633808"></polygon><polygon fill="rgb(0,0,0)" stroke="rgb(0,0,0)" points="322.54418464004993,216.72552354633808 283.0806465148926,216.73479281365871 284.97624611109495,198.62362368404865"></polygon><polygon fill="rgb(0,0,0)" stroke="rgb(0,0,0)" points="317.53916880488396,195.00075669586658 320.75152936577797,198.62139192968607 284.97624611109495,198.62362368404865"></polygon><polygon fill="rgb(0,0,0)" stroke="rgb(0,0,0)" points="284.97624611109495,198.62362368404865 288.18923331797123,195.00157429277897 317.53916880488396,195.00075669586658"></polygon></svg>